<svg xmlns="http://www.w3.org/2000/svg" viewBox="0 0 64 64" id="growth-plant"><linearGradient id="a" x1="-.897" x2="61.862" y1="1.462" y2="64.3" gradientUnits="userSpaceOnUse"><stop offset="0" stop-color="#f9ed32"></stop><stop offset=".017" stop-color="#ece834"></stop><stop offset=".067" stop-color="#cadc38"></stop><stop offset=".118" stop-color="#afd23b"></stop><stop offset=".17" stop-color="#9ccb3d"></stop><stop offset=".224" stop-color="#91c73f"></stop><stop offset=".281" stop-color="#8dc63f"></stop><stop offset=".383" stop-color="#0dcebb"></stop><stop offset=".624" stop-color="#d7df23"></stop><stop offset=".809" stop-color="#8dc63f"></stop><stop offset=".944" stop-color="#39b54a"></stop></linearGradient><path fill="url(#a)" d="M1 61h19.5c.279 0 .535.025.794.081l13.442 2.69c.572.113 1.16.17 1.758.169.222 0 .445-.008.67-.023l24.906-1.85A2.08 2.08 0 0 0 64 60a3.941 3.941 0 0 0-1.434-3.063 3.901 3.901 0 0 0-.837-.526c1.224-2.148 1.579-5.438-1.525-10.179C56.023 39.845 48.917 36.023 41 35.798V31c0-1.568.895-2.642 1.527-3.211 2.086 2.095 4.239 3.163 6.425 3.163.392 0 .784-.034 1.177-.102 6.164-1.062 10.004-10.245 10.164-10.635a1 1 0 0 0-.51-1.291c-.383-.175-9.466-4.246-14.689-.806-2.272 1.496-3.423 4.131-3.454 7.81a7.338 7.338 0 0 0-.64.556V21c0-3.624.518-5.922.888-7.105 1.695.86 3.287 1.297 4.762 1.297a6.896 6.896 0 0 0 3.188-.762c5.566-2.854 6.49-12.763 6.526-13.184a1 1 0 0 0-.872-1.079c-.418-.051-10.301-1.229-14.26 3.614-1.742 2.131-2.044 5.03-.93 8.607-.264.637-.748 2.038-1.047 4.353a7.385 7.385 0 0 0-.897-.814c-.031-3.679-1.182-6.314-3.454-7.81-5.222-3.441-14.303.633-14.688.807a1 1 0 0 0-.51 1.291c.16.39 4 9.573 10.164 10.635.394.068.786.102 1.177.102 2.186 0 4.34-1.067 6.425-3.163C38.106 18.359 39 19.433 39 21v14.815c-15.759.621-22.125 10.418-23.578 13.112a4.058 4.058 0 0 1-.682.073H1a1 1 0 0 0-1 1v10a1 1 0 0 0 1 1zm48.79-32.121c-1.761.302-3.569-.386-5.388-2.05l1.191-.471c2.93.062 4.47 1.32 5.203 2.234a5.591 5.591 0 0 1-1.006.287zm2.774-1.258c-.605-.833-1.7-1.944-3.505-2.634l2.08-.822c2.156.222 3.237.804 3.741 1.213-.692.838-1.467 1.623-2.316 2.243zm3.51-3.846c-.395-.31-.942-.626-1.662-.905l2.914-1.152a26.832 26.832 0 0 1-1.252 2.057zm-2.397-2.764c.334-.695.517-1.299.593-1.794.85.194 1.636.421 2.318.642l-2.911 1.152zm-1.375-2.146c-.089.643-.48 1.807-1.9 3.441l-2.078.822c.845-1.737.884-3.295.756-4.317 1.042-.128 2.144-.085 3.222.054zm-6.109.925c.292-.192.608-.344.933-.479.091 1.167-.172 3.138-2.27 5.188l-1.189.47c.188-2.457 1.035-4.196 2.526-5.179zm-9.859-4.809-1.173-.465c-2.114-2.057-2.378-4.036-2.286-5.206.325.135.641.287.933.479 1.492.985 2.339 2.729 2.526 5.192zM30.92 8.81c-.128 1.024-.089 2.586.761 4.328l-2.075-.822c-1.427-1.639-1.819-2.806-1.908-3.451 1.078-.139 2.18-.182 3.222-.055zm-8.243 2.909 2.911 1.151c-.719.279-1.265.594-1.66.903a26.906 26.906 0 0 1-1.251-2.054zm.732-1.859c.683-.222 1.47-.45 2.321-.643.077.496.26 1.102.596 1.799L23.409 9.86zm1.714 5.516c.505-.408 1.586-.99 3.739-1.211l2.08.822c-1.805.69-2.899 1.8-3.505 2.633-.848-.621-1.622-1.406-2.314-2.244zm5.09 3.503a5.511 5.511 0 0 1-1.008-.288c.732-.914 2.273-2.171 5.203-2.233l1.19.471c-1.819 1.663-3.628 2.352-5.385 2.05zM47.54 6.201l-1.73 1.398c.288-1.91-.14-3.409-.567-4.346.957-.432 2.021-.72 3.091-.909.107.64.074 1.872-.794 3.857zm3.657 4.42c-.827-.615-2.204-1.349-4.129-1.468l1.738-1.405c2.121-.431 3.326-.198 3.929.04-.409 1.008-.914 1.988-1.538 2.833zm.347-5.085 2.435-1.968a27.12 27.12 0 0 1-.581 2.334c-.469-.176-1.085-.314-1.854-.366zm-8.372 6.766.995-.804c2.816-.815 4.662-.075 5.633.578a5.514 5.514 0 0 1-.876.576c-1.589.813-3.519.695-5.752-.35zm9.549-10.288L50.288 3.98c.111-.762.106-1.393.031-1.888a27.418 27.418 0 0 1 2.402-.078zM42.78 5.049c.221-.271.477-.51.747-.735.435 1.086.772 3.046-.617 5.628l-.995.804c-.553-2.401-.264-4.313.865-5.697zM2 51h12.74c.943 0 1.814-.202 2.586-.601.348-.178.705-.348 1.065-.5a15.772 15.772 0 0 1 8.254-1.088l.128.016c.833.13 1.687.072 2.552-.18l6.986-2.09a4.694 4.694 0 0 1 3.458-.016 4.725 4.725 0 0 1 1.652 1.083l-10.169 3.717a1.75 1.75 0 0 0-1.022 1.667 1.736 1.736 0 0 0 1.134 1.567l2.862 1.077a1 1 0 0 0 .704-1.872l-2.235-.84 10.106-3.69c.049-.018.097-.04.143-.065.49-.272.794-.791.794-1.354 0-.315-.104-.637-.311-.931a6.7 6.7 0 0 0-2.935-2.221c-1.596-.62-3.346-.611-4.841-.006l-6.892 2.058a3.902 3.902 0 0 1-1.707.118l-.143-.018c-2.659-.38-5.64-.091-8.316.851 2.649-3.563 8.737-9.38 20.405-9.866V39a1 1 0 0 0 2 0v-1.206c7.202.201 13.722 3.714 17.531 9.533 2.362 3.607 2.696 6.516 1.046 8.673H41.82c-1.004 0-2.242-.278-2.999-.672a6.34 6.34 0 0 0-.861-.409.997.997 0 0 0-1.28.601.999.999 0 0 0 .601 1.28c.203.073.396.182.608.297 1.054.549 2.597.903 3.931.903H60c.476 0 .916.16 1.287.474.453.371.713.927.713 1.526 0 .032-.022.069-.074.073l-24.906 1.85a7.252 7.252 0 0 1-1.894-.113l-13.428-2.688A5.686 5.686 0 0 0 20.5 59H2v-8z"></path><linearGradient id="b" x1="-6.416" x2="56.343" y1="6.974" y2="69.813" gradientUnits="userSpaceOnUse"><stop offset="0" stop-color="#f9ed32"></stop><stop offset=".017" stop-color="#ece834"></stop><stop offset=".067" stop-color="#cadc38"></stop><stop offset=".118" stop-color="#afd23b"></stop><stop offset=".17" stop-color="#9ccb3d"></stop><stop offset=".224" stop-color="#91c73f"></stop><stop offset=".281" stop-color="#8dc63f"></stop><stop offset=".383" stop-color="#0dcebb"></stop><stop offset=".624" stop-color="#d7df23"></stop><stop offset=".809" stop-color="#8dc63f"></stop><stop offset=".944" stop-color="#39b54a"></stop></linearGradient><path fill="url(#b)" d="M28.293 42.737a.99.99 0 0 0-.006 1.392 1.01 1.01 0 0 0 1.407.035c.318-.292.487-.123.599-.013a.997.997 0 0 0 1.414 0 .999.999 0 0 0 0-1.414c-1.252-1.252-2.728-.686-3.414 0z"></path><linearGradient id="c" x1="2.095" x2="64.854" y1="-1.526" y2="61.313" gradientUnits="userSpaceOnUse"><stop offset="0" stop-color="#f9ed32"></stop><stop offset=".017" stop-color="#ece834"></stop><stop offset=".067" stop-color="#cadc38"></stop><stop offset=".118" stop-color="#afd23b"></stop><stop offset=".17" stop-color="#9ccb3d"></stop><stop offset=".224" stop-color="#91c73f"></stop><stop offset=".281" stop-color="#8dc63f"></stop><stop offset=".383" stop-color="#0dcebb"></stop><stop offset=".624" stop-color="#d7df23"></stop><stop offset=".809" stop-color="#8dc63f"></stop><stop offset=".944" stop-color="#39b54a"></stop></linearGradient><path fill="url(#c)" d="M46.694 44.164c.319-.292.487-.123.599-.013a.997.997 0 0 0 1.414 0 .999.999 0 0 0 0-1.414c-1.252-1.252-2.728-.687-3.414 0a.99.99 0 0 0-.006 1.392 1.009 1.009 0 0 0 1.407.035z"></path><linearGradient id="d" x1="-3.907" x2="58.852" y1="4.468" y2="67.307" gradientUnits="userSpaceOnUse"><stop offset="0" stop-color="#f9ed32"></stop><stop offset=".017" stop-color="#ece834"></stop><stop offset=".067" stop-color="#cadc38"></stop><stop offset=".118" stop-color="#afd23b"></stop><stop offset=".17" stop-color="#9ccb3d"></stop><stop offset=".224" stop-color="#91c73f"></stop><stop offset=".281" stop-color="#8dc63f"></stop><stop offset=".383" stop-color="#0dcebb"></stop><stop offset=".624" stop-color="#d7df23"></stop><stop offset=".809" stop-color="#8dc63f"></stop><stop offset=".944" stop-color="#39b54a"></stop></linearGradient><path fill="url(#d)" d="M43.694 53.164c.318-.293.486-.124.599-.013a.997.997 0 0 0 1.414 0 .999.999 0 0 0 0-1.414c-1.252-1.252-2.728-.687-3.414 0a.99.99 0 0 0-.006 1.392 1.008 1.008 0 0 0 1.407.035z"></path><linearGradient id="e" x1="1.598" x2="64.358" y1="-1.03" y2="61.808" gradientUnits="userSpaceOnUse"><stop offset="0" stop-color="#f9ed32"></stop><stop offset=".017" stop-color="#ece834"></stop><stop offset=".067" stop-color="#cadc38"></stop><stop offset=".118" stop-color="#afd23b"></stop><stop offset=".17" stop-color="#9ccb3d"></stop><stop offset=".224" stop-color="#91c73f"></stop><stop offset=".281" stop-color="#8dc63f"></stop><stop offset=".383" stop-color="#0dcebb"></stop><stop offset=".624" stop-color="#d7df23"></stop><stop offset=".809" stop-color="#8dc63f"></stop><stop offset=".944" stop-color="#39b54a"></stop></linearGradient><path fill="url(#e)" d="M52.694 51.164c.319-.292.486-.125.599-.013a.997.997 0 0 0 1.414 0 .999.999 0 0 0 0-1.414c-1.252-1.253-2.728-.688-3.414 0a.99.99 0 0 0-.006 1.392 1.01 1.01 0 0 0 1.407.035z"></path></svg>