<svg xmlns="http://www.w3.org/2000/svg" width="83.477" height="66.615" class="bhloan_svg"><defs><style>.bhloan_svg .b{fill:#162b75}.bhloan_svg .c{fill:#fff}</style></defs><path class="a" d="M677.229 149.771h43.7V120.64l-21.849-17.479-21.851 17.479Z" transform="translate(-657.841 -97.722)" style="fill:#d4d2d2"/><path class="b" d="M52.009 25.877h-.058a4.428 4.428 0 0 1 4.428 4.428v26.158h-8.74v-26.16a4.378 4.378 0 0 1 4.329-4.428Z"/><path class="c" d="M41.515 26.712h-7.187V39.46h7.187Z"/><path class="b" d="M33.873 39.916h8.1V26.257h-8.1Zm7.187-.91h-6.276V27.167h6.276Z"/><path class="c" d="M34.327 26.712h-7.186V39.46h7.186Z"/><path class="b" d="M26.686 39.916h8.1V26.257h-8.1Zm7.187-.91h-6.276V27.167h6.276Z"/><path class="d" d="m633.217 290.618-11.223 5.836-.136-.43a5.832 5.832 0 0 0-8.255-3.765l-14.873 7.437-20.392-5.826h-13.109v14.566h2.913l33.5 8.739 39.327-21.849a5.306 5.306 0 0 0-7.754-4.707Z" transform="translate(-557.493 -250.558)" style="fill:#f7be9d"/><path class="b" d="m6.107 63.523 11.118-3.49-6.107-19.456L0 44.067Z"/><path class="e" d="M662.85 329.309a1.457 1.457 0 0 1-.674-2.749l17.437-9.067a1.457 1.457 0 1 1 1.368 2.572l-.024.013-17.438 9.067a1.45 1.45 0 0 1-.67.165Z" transform="translate(-615.786 -272.89)" style="fill:#eea884"/><path class="f" d="M704.506 97.632a2.731 2.731 0 0 0 1.735-4.842l-22.994-18.883a2.731 2.731 0 0 0-3.465 0l-22.846 18.73a2.731 2.731 0 1 0 3.464 4.223l21.113-17.31 21.262 17.461a2.72 2.72 0 0 0 1.731.621Z" transform="translate(-640.276 -73.286)" style="fill:#f26522"/><path class="c" d="M6.398 51.594a.911.911 0 0 0 .866-1.192l-1.077-3.316a.91.91 0 1 0-1.732.562l1.077 3.316a.911.911 0 0 0 .866.63Z"/></svg>
