<svg version="1.1" id="Layer_1" xmlns="http://www.w3.org/2000/svg" x="0" y="0" viewBox="0 0 1080 1080" style="enable-background:new 0 0 1080 1080" xml:space="preserve"><style>.st1{fill:#fe8639}.st2{fill:#f26522}.st4{fill:#d4d2d2}</style><path d="M906.46 858.1v-56.03c16.19-1.24 37.36-4.98 53.54-21.17 18.67-18.67 21.17-48.56 21.17-62.26 0-4.98-3.73-8.72-8.72-8.72-13.7 0-43.59 2.49-62.26 21.17-1.24 1.24-1.24 2.49-2.49 3.73l.02-98.37c0-9.96-8.72-18.67-18.67-18.67-9.96 0-18.67 8.72-18.67 18.67v43.59c-1.24-1.24-1.24-2.49-2.49-2.49-18.67-18.67-48.56-21.17-63.5-21.17-4.98 0-8.72 3.73-8.72 8.72 0 13.7 2.49 43.59 21.17 62.26 14.94 14.94 37.36 19.93 53.54 21.17v107.09c-66-4.99-140.71-7.48-214.18-7.48v-46.07c14.94-1.24 37.36-4.98 53.54-21.17 18.67-18.67 21.17-48.56 21.17-62.26 0-4.98-3.73-8.72-8.72-8.72-14.94 0-43.59 2.49-63.5 21.17-1.24 1.24-1.24 2.49-2.49 3.73l.01-98.37c0-9.96-8.72-18.67-18.67-18.67-9.96 0-18.67 8.72-18.67 18.67v43.59c-1.24-1.24-1.24-2.49-2.49-2.49-18.67-18.67-48.56-21.17-62.26-21.17-4.98 0-8.72 3.73-8.72 8.72 0 13.7 2.49 43.59 21.17 62.26 14.94 14.94 37.36 19.93 53.54 21.17v99.62c-74.72 0-148.18 2.49-212.94 7.47v-53.54c16.19-1.24 37.36-4.98 53.54-21.17 18.67-18.67 21.17-48.56 21.17-62.26 0-4.98-3.73-8.72-8.72-8.72-13.7 0-43.59 2.49-62.26 21.17-1.24 1.24-1.24 2.49-2.49 3.73l.02-98.38c0-9.96-8.72-18.67-18.67-18.67-9.96 0-18.67 8.72-18.67 18.67v43.59c-1.24-1.24-1.24-2.49-2.49-2.49-18.67-18.67-48.56-21.17-63.5-21.17-4.98 0-8.72 3.73-8.72 8.72 0 13.7 2.49 43.59 21.17 62.26 14.94 14.94 37.36 19.93 53.54 21.17v110.82c-52.3 4.98-95.88 11.2-125.76 19.93l-3.73 87.16c-1.24 11.2-2.49 21.17-7.47 31.13h810.64c19.93 0 34.87-14.94 34.87-34.87v-58.53c-5.08-22.4-73.56-37.34-173.18-46.07z" style="fill:#f7be9d"/><path class="st1" d="M451.35 574.39c6.69 0 12.27-4.46 14.51-10.04l18.97-49.1c4.46-10.04-3.35-21.2-14.51-21.2H122.18c-55.79 0-101.54 41.28-107.13 97.08L.55 721.69c-1.11 13.39 7.81 24.55 20.08 27.9 14.51 3.35 33.48 5.58 52.44 7.81l12.27 208.66c1.11 17.86 15.62 31.24 33.48 31.24h101.54c17.86 0 32.36-13.39 33.48-31.24l17.86-360.42c0-17.86 14.51-32.36 33.48-32.36l146.17-.01v1.12z"/><path class="st2" d="M265.44 384.22c0 52.62-42.66 95.28-95.28 95.28-52.63 0-95.28-42.66-95.28-95.28 0-52.63 42.66-95.28 95.28-95.28 52.62 0 95.28 42.65 95.28 95.28"/><path class="st1" d="M534.65 577.6 426.9 313.92c-9.5-24.67-.83-39.94 23.86-49.44L917.72 86.35c24.67-9.5 38.38-1.7 47.89 22.98l95.39 253.3c9.5 24.67 6.43 47.63-18.26 57.14L586.68 596.64c-24.68 9.5-42.52 5.63-52.03-19.04z"/><path class="st2" d="M1000.44 205.4 464.66 413.07l42.12 92.61 529.36-207.58-35.7-92.7z"/><path d="M426.91 418.31v-291.6c0-31.2 11.6-40.54 42.15-40.54h505.47c14.91 0 26.99 12.09 26.99 26.99v305.15c0 14.91-12.09 26.99-26.99 26.99H453.9c-14.91 0-26.99-12.09-26.99-26.99z" style="fill:#162b75"/><path class="st4" d="M540.88 286.39h53.22V313h-53.22v-26.61zM540.88 366.22h53.22v26.61h-53.22v-26.61zM690.27 349.53h47.89v23.94h-47.89v-23.94z"/><path class="st4" d="M546.62 277.7h47.88v23.94h-47.88V277.7zM618.44 277.7h47.89v23.94h-47.89V277.7zM690.27 277.7h47.89v23.94h-47.89V277.7zM917.72 134.05h23.94v35.91h-23.94v-35.91zM869.84 134.05h23.94v35.91h-23.94v-35.91zM821.95 134.05h23.94v35.91h-23.94v-35.91zM774.07 134.05h23.94v35.91h-23.94v-35.91z"/><path class="st1" d="M474.79 210.66V153.2c0-10.58 8.57-19.16 19.16-19.16h57.46c10.58 0 19.15 8.57 19.15 19.16v57.46c0 10.58-8.57 19.16-19.15 19.16h-57.46c-10.59 0-19.16-8.57-19.16-19.16z"/><path class="st2" d="M540.88 166.65h39.92v26.61h-39.92v-26.61z"/><path class="st2" d="M534.65 169.96h35.91v23.94h-35.91v-23.94z"/></svg>
