<svg version="1.1" id="Layer_1" xmlns="http://www.w3.org/2000/svg" x="0" y="0" viewBox="0 0 1080 1080" style="enable-background:new 0 0 1080 1080" xml:space="preserve"><style>.st0{fill:#32363f}.st1{fill:#f7be9d}.st2{fill:#d29b6e}.st3{fill:#d5dced}.st6{fill:#c7cfe2}.st8{fill:#162b75}.st9{fill:#ff8352}</style><path class="st0" d="M782.46 400.42v12.19c0 14.95 2.41 29.79 7.13 43.97l27.63 82.88h52.14V348.28h-34.77c-28.79.01-52.13 23.35-52.13 52.14z" transform="translate(0 -70.193)"/><path class="st0" d="m1020.44 436.52-29.41 102.94L851.99 417.8c-19.2 0-34.76-15.56-34.76-34.76 0-28.8 23.34-52.14 52.14-52.14h121.66c19.2 0 34.76 15.56 34.76 34.76v32.67c0 12.92-1.8 25.77-5.35 38.19z" transform="translate(0 -70.193)"/><path class="st1" d="M851.97 591.61h104.28v76.92H851.97z" transform="translate(0 -70.193)"/><path class="st2" d="M851.98 623.53a137.894 137.894 0 0 0 104.28 0V591.6H851.98v31.93z" transform="translate(0 -70.193)"/><path class="st3" d="m1040.11 657.71-83.85-23.95-52.14 34.6-52.14-34.6-83.84 23.95c-22.39 6.4-37.82 26.86-37.82 50.14v152.62c0 9.63 7.81 17.43 17.43 17.43h312.85c9.63 0 17.43-7.81 17.43-17.43V707.85c0-23.31-15.49-43.78-37.92-50.14z" transform="translate(0 -70.193)"/><path d="M921.5 852.3h-34.76l8.69-183.72h17.43l8.64 183.72z" style="fill:#afb9d2" transform="translate(0 -70.193)"/><path class="st1" d="M904.12 609.03c-57.59 0-104.28-46.69-104.28-104.28v-20.44c0-9.22 3.66-18.06 10.18-24.58l31.51-31.51A34.377 34.377 0 0 1 866.77 418c55.56 1.76 104.73 13.65 131.62 39.91a34.34 34.34 0 0 1 10.02 24.62v22.15c.04 57.59-46.62 104.31-104.21 104.35h-.08z" transform="translate(0 -70.193)"/><path d="M912.81 703.28h-17.43a8.69 8.69 0 0 1-8.69-8.69v-26.07h34.76v26.07c0 4.78-3.86 8.66-8.64 8.69z" style="fill:#959cb5" transform="translate(0 -70.193)"/><path class="st6" d="m842.05 557.18-29.5 22.5c-4.58 3.49-11.13 2.61-14.62-1.97-.32-.42-.6-.85-.85-1.31l-26.43-48.28 10.63-16.23c2.08-3.22 6.38-4.15 9.6-2.07.33.21.65.46.94.73l50.23 46.63z" transform="translate(62.073 40.996)"/><path class="st6" d="m842.05 557.18 29.5 22.5c4.58 3.5 11.13 2.62 14.62-1.96.32-.41.6-.85.85-1.31l26.43-48.28-10.63-16.23c-2.08-3.22-6.38-4.15-9.6-2.07-.33.21-.65.46-.94.73l-50.23 46.62z" transform="translate(62.073 40.996)"/><path class="st0" d="M311.46 601.72a627.305 627.305 0 0 1-29.18-142.23c-4.84-67.05-55.34-121.66-123.63-121.66S39.86 392.47 35.02 459.49A627.305 627.305 0 0 1 5.84 601.72c-3.37 8.61.62 18.34 9.05 22.11a332.022 332.022 0 0 0 90.77 26.82H211.6a334.94 334.94 0 0 0 90.77-26.82c8.46-3.76 12.46-13.49 9.09-22.11z" transform="translate(0 -70.193)"/><path class="st1" d="m284.36 685.59-56.24-28.16a34.77 34.77 0 0 1-19.22-31.1v-52.14H104.62v52.14c0 13.16-7.44 25.2-19.22 31.08l-56.24 28.16A52.15 52.15 0 0 0 .34 732.21v102.71c0 9.63 7.81 17.43 17.43 17.43h278.04c9.63 0 17.43-7.81 17.43-17.43v-102.7a52.13 52.13 0 0 0-28.88-46.63z" transform="translate(0 -70.193)"/><path class="st2" d="M156.76 643.74a137.46 137.46 0 0 0 53.08-10.73c-.53-2.2-.85-4.44-.94-6.71v-52.14H104.62v52.14c-.09 2.26-.4 4.51-.94 6.71a138.275 138.275 0 0 0 53.08 10.73z" transform="translate(0 -70.193)"/><path class="st3" d="m284.36 685.58-40.07-20.03c-31.17 48.34-95.62 62.26-143.96 31.1a104.212 104.212 0 0 1-31.1-31.1l-40.07 20.03A52.134 52.134 0 0 0 .34 732.21v111.25c0 9.63 7.81 17.43 17.43 17.43h278.04c9.63 0 17.43-7.81 17.43-17.43V732.22c0-19.77-11.19-37.83-28.88-46.64z" transform="translate(0 -70.193)"/><path class="st1" d="M156.78 608.99c-52.38 0-96.63-38.85-103.42-90.79a17.532 17.532 0 0 1 9.29-18.06c11.1-5.58 21.44-12.56 30.76-20.77a100.36 100.36 0 0 0 23.78-31.29c3.43-7.43 11.63-11.41 19.59-9.52A299.543 299.543 0 0 1 254.79 499c4.11 3.44 6.33 8.63 5.98 13.97-4.31 54.24-49.59 96.04-103.99 96.02z" transform="translate(0 -70.193)"/><path d="m788.84 661.86-145.42-52.88-104.28 34.76-104.28-34.76-145.42 52.88c-27.48 9.99-45.77 36.1-45.77 65.34v188.6c0 9.63 7.81 17.43 17.43 17.43h556.17c9.63 0 17.43-7.81 17.43-17.43V727.2c-.01-29.27-18.34-55.39-45.86-65.34z" style="fill:#f26522" transform="translate(0 -70.193)"/><path class="st8" d="m520.92 678.51-16.55 258.93h69.52l-16.55-258.93h-36.42z" transform="translate(0 -70.193)"/><path class="st8" d="M557.38 702.4h-36.49c-6.72 0-12.16-5.45-12.16-12.16v-46.47h60.83v46.47c0 6.72-5.45 12.16-12.16 12.16h-.02z" transform="translate(0 -70.193)"/><path class="st0" d="M730.32 250.55v-145.6c0-19.2-15.56-34.76-34.76-34.76H486.99c-76.79 0-139.04 62.25-139.04 139.04v41.32c0 18.69 3.01 37.25 8.92 54.98l5.78 17.35a52.145 52.145 0 0 1 2.68 16.48v8.92h347.61v-8.92c0-5.6.91-11.17 2.68-16.48l5.78-17.35c5.91-17.73 8.93-36.29 8.92-54.98z" transform="translate(0 -70.193)"/><path class="st1" d="M434.85 487.33h208.57v156.42H434.85z" transform="translate(0 -70.193)"/><path class="st2" d="M434.85 546.08c64.46 37.51 144.1 37.51 208.56 0v-58.76H434.85v58.76z" transform="translate(0 -70.193)"/><path class="st9" d="m509.27 535.53-55.44 55.44c-6.83 6.78-17.87 6.75-24.65-.08-.53-.53-1.03-1.1-1.48-1.7l-57.48-75.73 15.03-31.68c4.16-8.69 14.56-12.36 23.25-8.2.54.26 1.06.54 1.57.85l99.2 61.1zM509.32 535.53l55.44 55.44c6.83 6.78 17.87 6.75 24.65-.08.53-.53 1.03-1.1 1.48-1.7l57.48-75.73-15.03-31.68c-4.16-8.69-14.56-12.36-23.25-8.2-.54.26-1.06.54-1.57.85l-99.2 61.1z" transform="translate(29.809 38.019)"/><path class="st1" d="M539.14 539.46c-95.99 0-173.8-77.81-173.81-173.8V345.3c0-9.22 3.66-18.06 10.18-24.58l14.4-14.4a34.756 34.756 0 0 0 10.18-24.58v-41.67a17.235 17.235 0 0 1 13.24-16.88c41.1-9.71 168.97-32.71 256.14 31.31a22.27 22.27 0 0 1 8.78 18v9.24c0 9.22 3.66 18.06 10.18 24.58l14.4 14.4a34.756 34.756 0 0 1 10.18 24.58v20.36c0 95.99-77.81 173.8-173.8 173.8h-.07z" transform="translate(0 -70.193)"/><path d="m959.56 745.32-141.44 73.55-1.71-5.42c-10.11-39.32-50.17-62.99-89.48-52.89a73.204 73.204 0 0 0-14.55 5.43l-187.44 93.72-256.99-73.43H102.72v183.57h36.71L561.64 1080l495.63-275.35c0-36.93-29.94-66.87-66.87-66.87a66.86 66.86 0 0 0-30.84 7.54z" style="fill:#f6bd9c"/><path d="m98.08 1041.02 140.11-43.98-76.97-245.2-140.11 43.98 76.97 245.2z" style="fill:#283272"/></svg>
