<svg version="1.1" id="Layer_1" xmlns="http://www.w3.org/2000/svg" x="0" y="0" viewBox="0 0 1080 1080" style="enable-background:new 0 0 1080 1080" xml:space="preserve"><style>.st0{fill:#f16623}.st1{fill:#e09e7e}.st2{fill:#f6bd9c}.st4{fill:#283272}.st5,.st6{fill-rule:evenodd;clip-rule:evenodd;fill:#d4d2d1}.st6{fill:#fbb22f}</style><path class="st0" d="m829.58 679.89-194.7-85.06-167.66 123.65L299.4 594.84 143.92 679.9C99.72 695.97 70.3 737.97 70.3 785v251.72c0 15.49 12.56 28.04 28.04 28.04h776.97c15.49 0 28.04-12.56 28.04-28.04V784.99c-.02-47.07-29.51-89.08-73.77-105.1z"/><path class="st1" d="M195.15 460.8c0-34.18 27.71-61.89 61.89-61.9h7.25c3.28 0 6.43 1.3 8.75 3.62l5.13 5.13c2.32 2.32 5.47 3.63 8.75 3.62h14.84a6.136 6.136 0 0 1 6.01 4.71c3.46 14.64 11.65 60.17-11.15 91.22-1.52 2-3.9 3.16-6.41 3.13h-3.29c-3.28 0-6.43 1.3-8.75 3.62l-5.13 5.13a12.333 12.333 0 0 1-8.75 3.62h-7.25c-34.18 0-61.89-27.71-61.89-61.89v-.01zM745.31 460.82c0 34.18-27.71 61.89-61.89 61.89h-7.25c-3.28 0-6.43-1.3-8.75-3.62l-5.13-5.13a12.375 12.375 0 0 0-8.75-3.62h-3.29a7.933 7.933 0 0 1-6.41-3.13c-22.8-31.04-14.61-76.58-11.15-91.22a6.134 6.134 0 0 1 6.01-4.71h14.84c3.28 0 6.43-1.3 8.75-3.62l5.13-5.13c2.32-2.32 5.47-3.62 8.75-3.62h7.25c34.18 0 61.89 27.71 61.89 61.9v.01z"/><path class="st2" d="M467.18 689.96c-121.27 0-219.59-101.64-219.6-227.03v-26.59c0-12.04 4.63-23.59 12.86-32.11l18.2-18.81c8.24-8.52 12.86-20.07 12.86-32.11v-54.43c-.06-10.48 6.87-19.62 16.72-22.05 51.93-12.68 213.48-42.72 323.61 40.9 7.09 5.58 11.2 14.3 11.1 23.51v12.07c0 12.04 4.63 23.59 12.86 32.11l18.2 18.81c8.24 8.52 12.86 20.07 12.86 32.11v26.59c0 125.38-98.31 227.03-219.58 227.03h-.09z"/><path class="st2" d="M467.21 730.92c-39.36 0-71.26-32.98-71.26-73.67v-8.63c0-3.91 1.5-7.66 4.17-10.42l5.91-6.11c2.67-2.76 4.17-6.51 4.17-10.42V604c-.02-3.4 2.23-6.37 5.43-7.16 16.85-4.12 69.28-13.86 105.02 13.27 2.3 1.81 3.63 4.64 3.6 7.63v3.92c0 3.91 1.5 7.66 4.17 10.42l5.91 6.11c2.67 2.76 4.17 6.51 4.17 10.42v8.63c0 40.69-31.9 73.67-71.26 73.67-.02.01-.03.01-.03.01z"/><path d="m682.98 395.31 94.26-111.43c11.13-15.29 7.75-36.71-7.55-47.83L470.84 38.03c-15.29-11.13-36.71-7.75-47.83 7.55L260.53 171.89c-11.13 15.29-7.75 36.71 7.55 47.83l367.07 183.13c15.28 11.14 36.7 7.76 47.83-7.54z" style="fill:#f48255"/><path class="st0" d="m231.77 390.69-99.16-117.23c-11.7-16.09-8.15-38.62 7.94-50.32l314.4-208.32c16.09-11.7 38.62-8.15 50.32 7.94L676.2 155.64c11.7 16.09 8.15 38.62-7.94 50.32L282.09 398.63c-16.09 11.71-38.62 8.15-50.32-7.94z"/><path class="st4" d="M711.4 1064.76 829.58 679.9l-146.49-64s-281.7 448.86-263.29 448.86M537.4 588.91c-18.12-30.88-46.16-30.62-76.38-31.97-32.17-1.45-56.42 7.28-74.85 37.9-5.25-43.27 8.59-59.75 45-59.87 20.89-.07 41.77-.06 62.66 0 36.53.09 48.6 13.58 43.57 53.94zM84.85 909.19v-24.24c14.38 10.22 34.43 8.92 47.32-3.97 21.68-21.68 12.27-64.36 12.27-64.36s-14.89-3.28-31.55-1.5c-6.02-26.91-36.71-46.53-36.71-46.53s-30.7 19.62-36.71 46.53c-16.66-1.78-31.55 1.5-31.55 1.5s-9.41 42.67 12.27 64.36c12.89 12.89 32.94 14.19 47.32 3.97v24.24h17.34zM20.18 725.41c12.89 12.89 32.94 14.19 47.32 3.97v24.25h17.36v-24.24c14.38 10.22 34.43 8.92 47.32-3.97 21.68-21.68 12.27-64.36 12.27-64.36s-14.89-3.28-31.55-1.5c-6.02-26.91-36.71-46.53-36.71-46.53s-30.7 19.62-36.71 46.53c-16.66-1.78-31.55 1.5-31.55 1.5s-9.44 42.67 12.25 64.35zM20.18 1036.54c12.89 12.89 32.94 14.19 47.32 3.97v24.24h17.36v-24.24c14.38 10.22 34.43 8.92 47.32-3.97 21.68-21.68 12.27-64.36 12.27-64.36s-14.89-3.28-31.55-1.5c-6.02-26.91-36.71-46.53-36.71-46.53s-30.7 19.62-36.71 46.53c-16.66-1.78-31.55 1.5-31.55 1.5s-9.44 42.68 12.25 64.36z"/><path id="Rectangle-5" class="st5" d="M1025.99 1007.32H832.47c-17.91 0-32.38 14.47-32.38 32.38 0 17.91 14.47 32.38 32.38 32.38h193.14c17.91 0 32.38-14.47 32.38-32.38.38-17.53-14.1-32.38-32-32.38z"/><path id="Rectangle-6" class="st6" d="M1025.99 942.94H832.47c-17.91 0-32.38 14.47-32.38 32.38 0 17.91 14.47 32.38 32.38 32.38h193.14c17.91 0 32.38-14.47 32.38-32.38.38-17.53-14.1-32.38-32-32.38z"/><path id="Rectangle-7" class="st5" d="M1025.99 878.94H832.47c-17.91 0-32.38 14.47-32.38 32.38 0 17.91 14.47 32.38 32.38 32.38h193.14c17.91 0 32.38-14.47 32.38-32.38.38-18.28-14.1-32.38-32-32.38z"/><path id="Rectangle-8" class="st6" d="M1025.99 814.18H832.47c-17.91 0-32.38 14.47-32.38 32.38 0 17.91 14.47 32.38 32.38 32.38h193.14c17.91 0 32.38-14.47 32.38-32.38.38-17.91-14.1-32.38-32-32.38z"/><path id="Rectangle-9" class="st5" d="M1025.99 749.8H832.47c-17.91 0-32.38 14.47-32.38 32.38 0 17.91 14.47 32.38 32.38 32.38h193.14c17.91 0 32.38-14.47 32.38-32.38.38-17.91-14.1-32.38-32-32.38z"/><circle id="Oval-2" cx="928.96" cy="605.03" style="fill:#e25d26" r="145.14"/><path d="M882.38 532.29h93.31c.52.07.79.34.79.79v8.88c0 .53-.26.79-.79.79h-35.12v.79c4.99 2.7 8.87 8.22 11.64 16.57l.4 2.86h23.08c.52.07.79.33.79.79v8.88c0 .53-.26.79-.79.79H953.5c0 9.93-6.09 19.59-18.25 29-10.79 6.18-18.44 9.27-22.98 9.27 0 .26-.26.4-.79.4l50.11 64.9v.79h-19.03c-.19 0-19.56-25.12-58.09-75.35v-.4h6.02c21.3 0 34.09-7.66 38.37-22.98.26-1.83.4-3.32.4-4.44v-1.18H882.4c-.53 0-.79-.26-.79-.79v-8.88c.06-.53.33-.79.79-.79h46.46c-1.58-5.98-4.93-10.85-10.06-14.6-7.1-3.75-13.58-5.62-19.43-5.62h-16.96c-.53 0-.79-.26-.79-.79v-8.88c.04-.54.31-.8.76-.8z" style="fill:#fff"/><circle cx="928.96" cy="605.03" r="145.17" style="fill:#fbb22f"/><circle cx="928.96" cy="605.03" r="110.33" style="fill:#ded9ec"/><path d="M887.6 550.28h81.41c.46.06.69.29.69.69v7.74c0 .46-.23.69-.69.69h-30.63v.69c4.36 2.36 7.74 7.17 10.15 14.46l.34 2.5h20.14c.46.06.69.29.69.69v7.74c0 .46-.23.69-.69.69h-19.36c0 8.66-5.31 17.09-15.92 25.3-9.41 5.39-16.1 8.09-20.05 8.09 0 .23-.23.34-.69.34l43.72 56.63v.69H940.1c-.18 0-17.07-21.92-50.69-65.75v-.34h5.25c18.59 0 29.74-6.69 33.47-20.05.23-1.61.34-2.89.34-3.87v-1.03H887.6c-.46 0-.69-.23-.69-.69v-7.74c.05-.46.28-.69.69-.69h40.54c-1.38-5.22-4.3-9.46-8.78-12.74-6.19-3.27-11.85-4.9-16.95-4.9h-14.8c-.46 0-.69-.23-.69-.69v-7.74c.05-.48.28-.71.68-.71z" style="fill:#283571"/></svg>
