<svg xmlns="http://www.w3.org/2000/svg" xmlns:xlink="http://www.w3.org/1999/xlink" width="80" height="80" viewBox="0 0 80 80">
  <defs>
    <linearGradient id="linear-gradient" x1="0.5" x2="0.5" y2="1" gradientUnits="objectBoundingBox">
      <stop offset="0" stop-color="#2d60dd"/>
      <stop offset="1" stop-color="#2d3079"/>
    </linearGradient>
    <clipPath id="clip-path">
      <circle id="Ellipse_2867" data-name="Ellipse 2867" cx="40" cy="40" r="40" transform="translate(-0.021 -0.021)" fill="#e0ecf7"/>
    </clipPath>
    <clipPath id="clip-path-2">
      <rect id="Rectangle_9352" data-name="Rectangle 9352" width="48" height="48" transform="translate(556.709 1106.709)" fill="url(#linear-gradient)"/>
    </clipPath>
  </defs>
  <g id="Group_18229" data-name="Group 18229" transform="translate(-929.979 -4092.979)">
    <circle id="Ellipse_2866" data-name="Ellipse 2866" cx="40" cy="40" r="40" transform="translate(929.979 4092.979)" fill="#f4f8ff"/>
    <g id="Mask_Group_946" data-name="Mask Group 946" transform="translate(930 4093)" clip-path="url(#clip-path)">
      <g id="Mask_Group_977" data-name="Mask Group 977" transform="translate(-540.73 -1090.73)" clip-path="url(#clip-path-2)">
        <g id="easy-to-use" transform="translate(561.292 1107)">
          <path id="Path_105669" data-name="Path 105669" d="M17.267,8.724a1.389,1.389,0,0,0,1.389-1.389V1.382a1.389,1.389,0,0,0-2.779,0V7.335A1.389,1.389,0,0,0,17.267,8.724Z" transform="translate(-3.059 0)" fill="url(#linear-gradient)"/>
          <path id="Path_105670" data-name="Path 105670" d="M10.868,8a1.389,1.389,0,0,0,1.965-1.965L11.345,4.543A1.389,1.389,0,1,0,9.38,6.508Z" transform="translate(-3.595 0.321)" fill="url(#linear-gradient)"/>
          <path id="Path_105671" data-name="Path 105671" d="M23.773,8l1.488-1.488A1.389,1.389,0,1,0,23.3,4.543L21.808,6.031A1.389,1.389,0,0,0,23.773,8Z" transform="translate(-2.63 0.321)" fill="url(#linear-gradient)"/>
          <path id="Path_105672" data-name="Path 105672" d="M33.329,19.936a2.032,2.032,0,0,0-2.873-2.873L25.618,21.9a2.032,2.032,0,0,0,2.873,2.873l4.838-4.838Z" transform="translate(-2.349 1.279)" fill="url(#linear-gradient)"/>
          <path id="Path_105673" data-name="Path 105673" d="M32.981,29.176l3.629-3.629h0a2.032,2.032,0,0,0-2.873-2.873L30.107,26.3a2.032,2.032,0,1,0,2.873,2.873Z" transform="translate(-2 1.715)" fill="url(#linear-gradient)"/>
          <path id="Path_105674" data-name="Path 105674" d="M39.89,28.287a2.031,2.031,0,0,0-2.873,0L34.6,30.7a2.031,2.031,0,0,0,2.872,2.874l2.419-2.419h0A2.031,2.031,0,0,0,39.89,28.287Z" transform="translate(-1.651 2.151)" fill="url(#linear-gradient)"/>
          <path id="Path_105675" data-name="Path 105675" d="M33.555,33.973c0-.009,0-.019,0-.028A4.8,4.8,0,0,1,28.72,29.1,4.807,4.807,0,0,1,25.287,20.9l13.305-13.3A2.032,2.032,0,1,0,35.72,4.717l-17.16,17.16.227.227a9.953,9.953,0,0,1,0,14.06A1.389,1.389,0,1,1,16.821,34.2a7.171,7.171,0,0,0,0-10.13l-1.21-1.211a1.387,1.387,0,0,1-.371-.668L13.651,15.3a3.638,3.638,0,0,0-4.8-2.6,1.39,1.39,0,0,0-.911,1.306L7.964,33.67,4.39,37.242a1.389,1.389,0,0,0,0,1.965l7.484,7.484a1.389,1.389,0,0,0,.983.407H26.564A3.718,3.718,0,0,0,29.21,46l7.507-7.507a4.819,4.819,0,0,1-3.162-4.521Z" transform="translate(-3.983 0.32)" fill="url(#linear-gradient)"/>
        </g>
      </g>
    </g>
  </g>
</svg>
