<svg version="1.1" id="Layer_1" xmlns="http://www.w3.org/2000/svg" xmlns:xlink="http://www.w3.org/1999/xlink" x="0" y="0" viewBox="0 0 1080 1080" style="enable-background:new 0 0 1080 1080" xml:space="preserve"><style>.st0{fill:#283372}.st2{fill:#f26724}.st4{fill:#dedee0}.st6{fill:#a0a0a0}.st8{fill:#e09e7e}.st9{fill:#f0f0ff}.st10{fill:#f7be9d}</style><path class="st0" d="M930.8 803.1c-1.4 0-2.5-1.1-2.5-2.5V529.1c0-1.4 1.1-2.5 2.5-2.5s2.5 1.1 2.5 2.5v271.4c0 1.4-1.1 2.6-2.5 2.6z"/><path class="st0" d="M949.6 543c-4-14.4-13.9-25.6-17.4-39.1-1.1-5.8.5-13 .5-13 .1-.8.2-1.6.2-2.5 0-3.3-1-5.9-2.2-5.9s-2.2 2.7-2.2 5.9c0 .9.1 1.7.2 2.5 0 0 1.6 7.1.5 13-3.5 13.5-13.3 24.7-17.4 39.2-4.4 15.8-1.8 49.7 18 49.7h1.6c20-.1 22.6-33.9 18.2-49.8z"/><path class="st0" d="M981 609.4c7.4-13.1 8.3-27.9 15.4-40 3.3-4.9 9.5-8.8 9.5-8.8.6-.4 1.3-1 1.9-1.6 2.3-2.3 3.5-4.9 2.7-5.7s-3.4.3-5.7 2.7c-.6.6-1.2 1.3-1.6 1.9 0 0-3.9 6.2-8.8 9.5-12 7.1-26.9 8.1-40 15.4-14.3 8.1-36.4 33.9-22.4 47.9l1.1 1.1c14 14 39.8-8.1 47.9-22.4z"/><path class="st0" d="M880.9 609.4c-7.4-13.1-8.3-27.9-15.4-40-3.3-4.9-9.5-8.8-9.5-8.8-.6-.4-1.3-1-1.9-1.6-2.3-2.3-3.5-4.9-2.7-5.7s3.4.3 5.7 2.7c.6.6 1.2 1.3 1.6 1.9 0 0 3.9 6.2 8.8 9.5 12 7.1 26.9 8.1 40 15.4 14.3 8.1 36.4 33.9 22.4 47.9l-1.1 1.1c-14 14-39.8-8.1-47.9-22.4zM981 671.2c7.4-13.1 8.3-27.9 15.4-40 3.3-4.9 9.5-8.8 9.5-8.8.6-.4 1.3-1 1.9-1.6 2.3-2.3 3.5-4.9 2.7-5.7s-3.4.3-5.7 2.7c-.6.6-1.2 1.3-1.6 1.9 0 0-3.9 6.2-8.8 9.5-12 7.1-26.9 8.1-40 15.4-14.3 8.1-36.4 33.9-22.4 47.9l1.1 1.1c14 14 39.8-8.1 47.9-22.4z"/><path class="st0" d="M880.9 671.2c-7.4-13.1-8.3-27.9-15.4-40-3.3-4.9-9.5-8.8-9.5-8.8-.6-.4-1.3-1-1.9-1.6-2.3-2.3-3.5-4.9-2.7-5.7s3.4.3 5.7 2.7c.6.6 1.2 1.3 1.6 1.9 0 0 3.9 6.2 8.8 9.5 12 7.1 26.9 8.1 40 15.4 14.3 8.1 36.4 33.9 22.4 47.9l-1.1 1.1c-14 14-39.8-8.1-47.9-22.4zM981 733c7.4-13.1 8.3-27.9 15.4-40 3.3-4.9 9.5-8.8 9.5-8.8.6-.4 1.3-1 1.9-1.6 2.3-2.3 3.5-4.9 2.7-5.7s-3.4.3-5.7 2.7c-.6.6-1.2 1.3-1.6 1.9 0 0-3.9 6.2-8.8 9.5-12 7.1-26.9 8.1-40 15.4-14.3 8.1-36.4 33.9-22.4 47.9l1.1 1.1c14 14.1 39.8-8 47.9-22.4z"/><path class="st0" d="M880.9 733c-7.4-13.1-8.3-27.9-15.4-40-3.3-4.9-9.5-8.8-9.5-8.8-.6-.4-1.3-1-1.9-1.6-2.3-2.3-3.5-4.9-2.7-5.7s3.4.3 5.7 2.7c.6.6 1.2 1.3 1.6 1.9 0 0 3.9 6.2 8.8 9.5 12 7.1 26.9 8.1 40 15.4 14.3 8.1 36.4 33.9 22.4 47.9l-1.1 1.1c-14 14.1-39.8-8-47.9-22.4zM121.1 1075.2c-2 0-3.7-1.7-3.7-3.7V615.6c0-2 1.7-3.7 3.7-3.7s3.7 1.7 3.7 3.7v455.9c0 2.1-1.7 3.7-3.7 3.7z"/><path class="st0" d="M148.5 635.9c-5.9-21.1-20.2-37.4-25.3-57.1-1.6-8.5.7-19 .7-19 .2-1.1.3-2.3.3-3.6 0-4.8-1.4-8.6-3.1-8.6s-3.1 3.9-3.1 8.6c0 1.3.1 2.5.3 3.6 0 0 2.3 10.4.7 18.9-5.1 19.7-19.4 36.1-25.3 57.1-6.5 23.1-2.6 72.5 26.3 72.5h2.3c28.8.1 32.7-49.3 26.2-72.4z"/><path class="st0" d="M194.3 732.7c10.7-19.1 12.1-40.7 22.5-58.3 4.9-7.2 13.9-12.9 13.9-12.9.9-.7 1.9-1.4 2.8-2.4 3.4-3.4 5.1-7.1 3.9-8.3-1.2-1.2-5 .5-8.3 3.9-.9.9-1.7 1.9-2.4 2.8 0 0-5.7 9-12.9 13.9-17.6 10.4-39.2 11.7-58.3 22.5-20.9 11.8-53.1 49.4-32.7 69.8l1.7 1.6c20.4 20.5 58.1-11.7 69.8-32.6z"/><path class="st0" d="M48.3 732.7c-10.7-19.1-12.1-40.7-22.5-58.3-4.9-7.2-13.9-12.9-13.9-12.9-.9-.7-1.9-1.4-2.8-2.4-3.4-3.4-5.1-7.1-3.9-8.3s5 .5 8.3 3.9c.9.9 1.7 1.9 2.4 2.8 0 0 5.7 9 12.9 13.9 17.6 10.4 39.2 11.7 58.3 22.5 20.9 11.8 53.1 49.4 32.7 69.8l-1.6 1.6c-20.5 20.5-58.1-11.7-69.9-32.6zM194.3 822.9c10.7-19.1 12.1-40.7 22.5-58.3 4.9-7.2 13.9-12.9 13.9-12.9.9-.7 1.9-1.4 2.8-2.4 3.4-3.4 5.1-7.1 3.9-8.3-1.2-1.2-5 .5-8.3 3.9-.9.9-1.7 1.9-2.4 2.8 0 0-5.7 9-12.9 13.9-17.6 10.4-39.2 11.8-58.3 22.5-20.9 11.8-53.1 49.4-32.7 69.8l1.7 1.6c20.4 20.5 58.1-11.7 69.8-32.6z"/><path class="st0" d="M48.3 822.9c-10.7-19.1-12.1-40.7-22.5-58.3-4.9-7.2-13.9-12.9-13.9-12.9-.9-.7-1.9-1.4-2.8-2.4-3.4-3.4-5.1-7.1-3.9-8.3s5 .5 8.3 3.9c.9.9 1.7 1.9 2.4 2.8 0 0 5.7 9 12.9 13.9C46.4 772 68 773.4 87.1 784.1c20.9 11.8 53.1 49.4 32.7 69.8l-1.6 1.6c-20.5 20.5-58.1-11.7-69.9-32.6zM194.3 913.1c10.7-19.1 12.1-40.7 22.5-58.3 4.9-7.2 13.9-12.9 13.9-12.9.9-.7 1.9-1.4 2.8-2.4 3.4-3.4 5.1-7.1 3.9-8.3-1.2-1.2-5 .5-8.3 3.9-.9.9-1.7 1.9-2.4 2.8 0 0-5.7 9-12.9 13.9-17.6 10.4-39.2 11.7-58.3 22.5-20.9 11.8-53.1 49.4-32.7 69.8l1.7 1.6c20.4 20.5 58.1-11.7 69.8-32.6z"/><path class="st0" d="M48.3 913.1c-10.7-19.1-12.1-40.7-22.5-58.3-4.9-7.2-13.9-12.9-13.9-12.9-.9-.7-1.9-1.4-2.8-2.4-3.4-3.4-5.1-7.1-3.9-8.3s5 .5 8.3 3.9c.9.9 1.7 1.9 2.4 2.8 0 0 5.7 9 12.9 13.9 17.6 10.4 39.2 11.7 58.3 22.5 20.9 11.8 53.1 49.4 32.7 69.8l-1.6 1.6c-20.5 20.5-58.1-11.7-69.9-32.6zM194.3 1014.3c10.7-19.1 12.1-40.7 22.5-58.3 4.9-7.2 13.9-12.9 13.9-12.9.9-.7 1.9-1.4 2.8-2.4 3.4-3.4 5.1-7.1 3.9-8.3-1.2-1.2-5 .5-8.3 3.9-.9.9-1.7 1.9-2.4 2.8 0 0-5.7 9-12.9 13.9-17.6 10.4-39.2 11.7-58.3 22.5-20.9 11.8-53.1 49.4-32.7 69.8l1.7 1.6c20.4 20.5 58.1-11.7 69.8-32.6z"/><path class="st0" d="M48.3 1014.3c-10.7-19.1-12.1-40.7-22.5-58.3-4.9-7.2-13.9-12.9-13.9-12.9-.9-.7-1.9-1.4-2.8-2.4-3.4-3.4-5.1-7.1-3.9-8.3s5 .5 8.3 3.9c.9.9 1.7 1.9 2.4 2.8 0 0 5.7 9 12.9 13.9 17.6 10.4 39.2 11.7 58.3 22.5 20.9 11.8 53.1 49.4 32.7 69.8l-1.6 1.6c-20.5 20.5-58.1-11.7-69.9-32.6zM262.6 761.1c-1.8 0-3.2-1.4-3.2-3.2V419c0-1.7 1.4-3.2 3.2-3.2 1.8 0 3.2 1.4 3.2 3.2v338.9c-.1 1.8-1.5 3.2-3.2 3.2z"/><path class="st0" d="M286.1 436.4c-5-18-17.3-32-21.7-48.9-1.4-7.3.6-16.2.6-16.2.2-1 .3-2 .3-3.1 0-4.1-1.2-7.4-2.7-7.4s-2.7 3.3-2.7 7.4c0 1.1.1 2.2.3 3.1 0 0 2 8.9.6 16.2-4.4 16.9-16.6 30.9-21.7 48.9-5.5 19.8-2.3 62 22.5 62h2c24.7.1 28-42.2 22.5-62z"/><path class="st0" d="M325.3 519.3c9.2-16.3 10.4-34.8 19.2-49.9 4.2-6.1 11.9-11 11.9-11 .8-.6 1.6-1.2 2.4-2 2.9-2.9 4.4-6.1 3.3-7.1-1.1-1.1-4.2.4-7.1 3.3-.8.8-1.5 1.6-2 2.4 0 0-4.9 7.7-11 11.9-15 8.9-33.6 10.1-49.9 19.3-17.9 10.1-45.5 42.3-28 59.8l1.4 1.4c17.5 17.4 49.7-10.2 59.8-28.1z"/><path class="st0" d="M200.3 519.3c-9.2-16.3-10.4-34.8-19.2-49.9-4.2-6.1-11.9-11-11.9-11-.8-.6-1.6-1.2-2.4-2-2.9-2.9-4.4-6.1-3.3-7.1 1.1-1.1 4.2.4 7.1 3.3.8.8 1.5 1.6 2 2.4 0 0 4.9 7.7 11 11.9 15 8.9 33.6 10.1 49.9 19.3 17.9 10.1 45.5 42.3 28 59.8l-1.4 1.4c-17.5 17.4-49.7-10.2-59.8-28.1zM325.3 596.5c9.2-16.3 10.4-34.9 19.2-49.9 4.2-6.1 11.9-11 11.9-11 .8-.6 1.6-1.2 2.4-2 2.9-2.9 4.4-6.1 3.3-7.1s-4.2.4-7.1 3.3c-.8.8-1.5 1.6-2 2.4 0 0-4.9 7.7-11 11.9-15 8.9-33.6 10.1-49.9 19.3-17.9 10.1-45.5 42.3-28 59.8l1.4 1.4c17.5 17.4 49.7-10.2 59.8-28.1z"/><path class="st0" d="M200.3 596.5c-9.2-16.3-10.4-34.9-19.2-49.9-4.2-6.1-11.9-11-11.9-11-.8-.6-1.6-1.2-2.4-2-2.9-2.9-4.4-6.1-3.3-7.1 1.1-1 4.2.4 7.1 3.3.8.8 1.5 1.6 2 2.4 0 0 4.9 7.7 11 11.9 15 8.9 33.6 10.1 49.9 19.3 17.9 10.1 45.5 42.3 28 59.8l-1.4 1.4c-17.5 17.4-49.7-10.2-59.8-28.1zM325.3 673.7c9.2-16.3 10.4-34.9 19.2-49.9 4.2-6.1 11.9-11 11.9-11 .8-.6 1.6-1.2 2.4-2 2.9-2.9 4.4-6.1 3.3-7.1-1.1-1.1-4.2.4-7.1 3.3-.8.8-1.5 1.6-2 2.4 0 0-4.9 7.7-11 11.9-15 8.9-33.6 10.1-49.9 19.2-17.9 10.1-45.5 42.3-28 59.8l1.4 1.4c17.5 17.4 49.7-10.2 59.8-28z"/><path class="st0" d="M200.3 673.7c-9.2-16.3-10.4-34.9-19.2-49.9-4.2-6.1-11.9-11-11.9-11-.8-.6-1.6-1.2-2.4-2-2.9-2.9-4.4-6.1-3.3-7.1 1.1-1.1 4.2.4 7.1 3.3.8.8 1.5 1.6 2 2.4 0 0 4.9 7.7 11 11.9 15 8.9 33.6 10.1 49.9 19.2 17.9 10.1 45.5 42.3 28 59.8l-1.4 1.4c-17.5 17.4-49.7-10.2-59.8-28z"/><defs><path id="SVGID_1_" d="M0 0h1080v1080H0z"/></defs><clipPath id="SVGID_00000094619045900668826550000004963563766362714507_"><use xlink:href="#SVGID_1_" style="overflow:visible"/></clipPath><g style="clip-path:url(#SVGID_00000094619045900668826550000004963563766362714507_)"><path class="st2" d="M620 82.5 666.2 0l33 31.1 82.5-12.4 19.5 75.6-60.6 53.3z"/><path d="M702.6 680.6c-5.5-15.3-14.3-30.8-27.3-30.4 8.2 11.2 17.4 21.3 27.3 30.4z" style="fill:#e4ce8d"/><path class="st4" d="M720.9 699c-3.5 3.5-7.1 7-10.9 10.6 0 0-12.3-81-48.2-54l-.2-.1c-5.8 8.3-10.5 18.1-13.1 29.9-8.3 37.3-40.6 73.1-50.4 142.4-2.9 20-3.8 42.9-1.7 69.4"/><path d="M734.3 573.6c2.8 5.2 1.8 11.2-3.9 17.9-10.7 12.3-23.3 22-35.6 31.6-69.4-31.2-169.5-13.6-193.3-8.8l-.1.1c-18.6-15.9-36.2-30.2-38.6-40-.7-2.8-.3-5.4 1.2-7.8 9.5-15.9 63.7-22.9 131-22.9 61.7.1 128.7 9.4 139.3 29.9z" style="fill:#ad966b"/><path class="st6" d="M734.3 573.6c2.8 5.2 1.8 11.2-3.9 17.9-10.7 12.3-23.3 22-35.6 31.6-69.4-31.2-169.5-13.6-193.3-8.8l-.1.1c-18.6-15.9-36.2-30.2-38.6-40-.7-2.8-.3-5.4 1.2-7.8 9.5-15.9 63.7-22.9 131-22.9 61.7.1 128.7 9.4 139.3 29.9z"/><path d="M694.8 623.1c-12.3 9.6-24.2 19.5-33.2 32.4-5.8 8.3-10.5 18.1-13.1 29.9-8.3 37.3-40.6 73.1-50.4 142.4-9.4-49.4-25.8-66.2-44.4-82.3-18.7-16 0-37.4-4.1-72.2-.7-6.1-3.7-12.5-8.3-19.1-9.3-13.4-25-27.2-40-39.8l.1-.1c23.9-4.8 124-22.3 193.4 8.8z" style="fill:#d0b978"/><path class="st6" d="M694.8 623.1c-12.3 9.6-24.2 19.5-33.2 32.4-5.8 8.3-10.5 18.1-13.1 29.9-8.3 37.3-40.6 73.1-50.4 142.4-9.4-49.4-25.8-66.2-44.4-82.3-18.7-16 0-37.4-4.1-72.2-.7-6.1-3.7-12.5-8.3-19.1-9.3-13.4-25-27.2-40-39.8l.1-.1c23.9-4.8 124-22.3 193.4 8.8z"/><path class="st4" d="M596.5 897.1c-2.1-26.4-1.2-49.3 1.7-69.4-1.3-7-2.8-13.3-4.4-19.1-76.4-31.5-144.3-77.9-194.7-154.4-29.6 13.5-79.7 34.6-127.1 45.9-19.6 4.6-38 10.8-54.5 19.3 0 0 67.3 136 104.8 301.9v.2c9.6 42 17.1 86 21.1 130.1l252 6.7 1.1-261.2z"/><path class="st8" d="M498.4 555v100.3l83.7 178.1s62.4-26.2 63.2-31.4c.9-5.1 76.2-191.3 76.2-191.3l-24.1-48.5-199-7.2z"/><path class="st9" d="m734.3 573.6 42.8 64c-.7.7-1.3 1.4-1.9 2.1-20.8 22.4-41.6 51.7-72.6 86.5 0 0-48.3-46.7-67-9.9l26-60.9c13.6-15.8 20.9-22.7 33.2-32.4 12.3-9.6 25-19.3 35.6-31.6 5.7-6.6 6.7-12.6 3.9-17.8zM541.4 654.2c-32.4-15.1-62.5 55.4-62.5 55.4-18.7-28.4-42.5-55.6-53.6-68h-.1c-4-4.5-6.4-7-6.4-7l45.3-68c-1.5 2.4-1.9 5-1.2 7.8 2.4 9.7 19.9 24 38.6 40 14.9 12.6 30.6 26.4 39.9 39.8z"/><path class="st4" d="M1046.3 1158.1c6.6-114 15.1-232.5 15.1-299.2 0-94.2-48.2-134.6-112.8-154.1v.1S903.3 853.3 877 985.6c2.6 26 8.1 88.8 11.4 172.5h157.9z"/><path class="st4" d="M596.5 897.1c-2.1-26.4-1.2-49.3 1.7-69.4 9.7-69.3 42.1-105.1 50.4-142.4 2.6-11.8 7.2-21.5 13.1-29.9l.2.1c35.9-27 48.2 54 48.2 54 26.2-24.7 44.4-47.5 65.2-69.8l1.9 1.9s77.2 23.8 153.4 58.4c6.1 1.5 12.1 3.1 18.1 4.8v.1s-45.3 148.4-71.6 280.7c-7.9 39.5-14 77.5-16.8 109.7v62.8h-265l1.2-261"/><path class="st0" d="M616.9 968.5c3.9 0 7 3.2 7 7 0 3.9-3.2 7.1-7 7.1-3.9 0-7-3.2-7-7.1.1-3.9 3.1-7 7-7zM617 855.6c3.8 0 7 3.2 7 7 0 3.9-3.2 7-7 7-3.9 0-7-3.1-7-7 0-3.8 3.1-7 7-7z"/><path class="st4" d="M343.3 1151.5c-4.1-44.1-11.6-88.1-21.1-130.1v-.2c-37.5-165.9-104.8-301.9-104.8-301.9 104.8-53.9 204.1-75.8 207.8-77.7h.1c11.1 12.3 34.9 39.6 53.6 68 0 0 30.1-70.5 62.5-55.4 4.5 6.6 77 72.1 56.8 173.5-2.9 20-3.8 42.9-1.7 69.4"/><path class="st4" d="M155.6 1151.5c-6.6-111.9-14.7-227.1-14.7-292.5 0-75.4 30.9-116.3 76.4-139.7 0 0 67.3 136 104.8 301.9v.2c-2.6 31.3-5.7 76.1-7.9 130.2"/><path class="st8" d="M384.5 434.8c0-30.2 22.1-54.8 49.5-54.8h5.8c2.6 0 5.1 1.1 7 3.2l4.1 4.6c1.9 2 4.4 3.2 7 3.2h11.8c2.3 0 4.3 1.7 4.8 4.2 2.8 12.9 9.3 53.3-8.9 80.7-1.2 1.8-3.1 2.8-5.1 2.8h-2.6c-2.6 0-5.1 1.1-7 3.2l-4.1 4.6c-1.9 2-4.4 3.2-7 3.2H434c-27.5-.1-49.6-24.7-49.5-54.9zM823.8 434.8c0 30.2-22.1 54.8-49.5 54.8h-5.8c-2.6 0-5.1-1.1-7-3.2l-4.1-4.6c-1.9-2-4.4-3.2-7-3.2h-2.6c-2 0-3.9-1-5.1-2.8-18.2-27.4-11.6-67.8-8.9-80.7.6-2.4 2.5-4.2 4.8-4.2h11.8c2.6 0 5.1-1.1 7-3.2l4.1-4.6c1.9-2 4.4-3.2 7-3.2h5.8c27.3.1 49.5 24.7 49.5 54.9z"/><path class="st10" d="M601.1 633.8c-93.5 0-169.4-120.3-169.4-268.7v-31.5c0-14.2 3.5-27.9 9.9-38l14-22.3c6.3-10 9.9-23.8 9.9-38V171c-.1-12.4 5.3-23.2 12.9-26.1 40.1-15 164.7-50.6 249.7 48.4 5.5 6.6 8.6 16.9 8.6 27.8v14.3c0 14.2 3.5 27.9 9.9 38l14 22.3c6.3 10 9.9 23.8 9.9 38v31.4c.1 148.4-75.8 268.7-169.4 268.7.1 0 0 0 0 0z"/><path class="st10" d="M601.1 649.6c-38.4 0-69.5-32.2-69.5-71.9v-8.5c0-3.8 1.5-7.4 4.1-10.1l5.8-5.9c2.6-2.7 4.1-6.3 4.1-10.1v-17.2c0-3.3 2.1-6.2 5.3-7 16.5-4 67.6-13.5 102.4 12.9 2.2 1.8 3.5 4.6 3.5 7.4v3.8c0 3.8 1.5 7.4 4.1 10.1l5.8 5.9c2.6 2.7 4.1 6.3 4.1 10.1v8.5c-.1 39.9-31.3 72-69.7 72 .1 0 .1 0 0 0z"/><path class="st2" d="M387.2 381.5 297 274.9c-10.7-14.6-7.4-35.1 7.3-45.7l270-153.9c14.6-10.7 35.1-7.4 45.7 7.3l155.5 120.9c10.7 14.6 7.4 35.1-7.3 45.7L432.9 388.7c-14.6 10.7-35.1 7.4-45.7-7.2z"/><path d="m797.6 385.7 85.7-101.3c10.1-13.9 7.1-33.4-6.9-43.5l-280.1-192c-13.9-10.1-33.4-7.1-43.5 6.9L353.5 177.2c-10.1 13.9-7.1 33.4 6.9 43.5l393.8 171.8c13.8 10.2 33.3 7.1 43.4-6.8z" style="fill:#f58355"/><path class="st0" d="M707.4 524.5c4.6 5.9 2.9 14.4-6.4 16.3-24.3 4.7-46.8-24.8-69.9-29.6-15.7-3.2-24.5 4.2-29.2 11.1-4.6-6.9-13.5-14.2-29.2-11.1-23.1 4.7-45.7 34.3-69.9 29.6-9.3-1.9-11.1-10.3-6.4-16.3-11.5 1.1-11.4 19.9 0 27 17.5 10.9 43.4 7.8 63.8.2 21.5-8 33.2-16.1 41.8-18.7 8.6 2.5 20.4 10.7 41.8 18.7 20.4 7.5 46.3 10.6 63.8-.2 11.2-7.2 11.3-25.9-.2-27z"/><path class="st2" d="M397.2 150.5 825 353.3l29.4-34.6L489.7 94.3z"/><path class="st6" d="M599.3 808.6s-11.7 396.6-10.2 362.8c9-202.9 14.8-250.2 10.2-362.8z"/><path class="st0" d="M616 1054.2c3.9 0 7 3.2 7 7 0 3.9-3.2 7.1-7 7.1-3.9 0-7-3.2-7-7.1 0-3.9 3.1-7 7-7z"/></g></svg>
