<svg version="1.1" id="Layer_1" xmlns="http://www.w3.org/2000/svg" x="0" y="0" viewBox="0 0 1080 1080" style="enable-background:new 0 0 1080 1080" xml:space="preserve"><style>.st0{fill:#f7be9d}.st1{fill:#f6873e}.st2{fill:#f26724}.st4{fill:#d4d3d2}</style><g id="surface1"><path class="st0" d="M1014.5 311.03 820.76 116.91v777.88h259.29V468.64c0-59.17-23.6-115.9-65.55-157.61z"/><path class="st1" d="M172.52 766.11 5.83 358.16c-14.7-38.17-1.28-61.79 36.91-76.49L765.19 6.07c38.17-14.7 59.38-2.63 74.09 35.56l147.58 391.89c14.7 38.17 9.94 73.69-28.25 88.4L253.03 795.56c-38.19 14.7-65.78 8.72-80.51-29.45z"/><path class="st2" d="M893.17 190.25 64.25 511.56l55.2 143.28L948.4 333.68l-55.23-143.43z"/><path d="M5.83 519.65V68.51c0-48.28 17.95-62.72 65.22-62.72h782.03c23.06 0 41.76 18.7 41.76 41.76v472.11c0 23.07-18.7 41.76-41.76 41.76H47.6c-23.07 0-41.77-18.7-41.77-41.77z" style="fill:#283372"/><path class="st4" d="M79.92 302.12H154v37.04H79.92v-37.04zM79.92 413.25H154v37.04H79.92v-37.04zM413.29 413.25h74.09v37.04h-74.09v-37.04zM191.05 302.12h74.08v37.04h-74.08v-37.04zM302.17 302.12h74.09v37.04h-74.09v-37.04zM413.29 302.12h74.09v37.04h-74.09v-37.04zM765.19 79.87h37.04v55.56h-37.04V79.87zM691.11 79.87h37.04v55.56h-37.04V79.87zM617.02 79.87h37.04v55.56h-37.04V79.87zM542.94 79.87h37.04v55.56h-37.04V79.87z"/><path class="st1" d="M746.67 894.79h333.38V1080H746.67V894.79z"/><path class="st0" d="M692.31 340.37c-31.41-31.3-82.25-31.21-113.55.21-30.27 30.37-31.32 79.17-2.39 110.83l151.78 165.58c-45.62 79.84-43.67 178.3 5.05 256.27l13.47 21.54h240.77V635.5L692.31 340.37z"/><path class="st2" d="M802.24 950.36h37.04v37.04h-37.04v-37.04z"/><path class="st1" d="M79.92 198.41v-88.9c0-16.37 13.26-29.64 29.64-29.64h88.9c16.37 0 29.63 13.26 29.63 29.64v88.9c0 16.37-13.25 29.64-29.63 29.64h-88.9c-16.38-.01-29.64-13.27-29.64-29.64z"/><path class="st2" d="M79.92 135.43h55.56v37.04H79.92v-37.04zM172.52 135.43h55.56v37.04h-55.56v-37.04z"/><path d="M968.92 635.5c-4.9 0-9.63-1.95-13.09-5.43l-74.09-74.09c-7.11-7.35-6.9-19.07.47-26.19 7.19-6.93 18.56-6.93 25.72 0l74.09 74.09c7.22 7.24 7.22 18.97 0 26.19a18.54 18.54 0 0 1-13.1 5.43z" style="fill:#f2a570"/></g></svg>
